<svg id="Layer_1" data-name="Layer 1" xmlns="http://www.w3.org/2000/svg" viewBox="0 0 272.18 272.18"><defs><style>.cls-1{fill:#39a935;}</style></defs><path class="cls-1" d="M138.7,82.74h-.06a53.35,53.35,0,0,0,0,106.7v-7A46.31,46.31,0,1,1,185,136.19a46.38,46.38,0,0,1-46.36,46.25v7h0a53.35,53.35,0,0,0,.07-106.7Z"/><path class="cls-1" d="M254.79,205.11c0-.65,0-1.3,0-1.94l-1-48.15-.37-18.29V125.22c0-21.52,0-41.86,0-62.57a19.08,19.08,0,0,0-.69-4.76,9.7,9.7,0,0,0-8.21-7.3,14.66,14.66,0,0,0-2.27-.18,11.75,11.75,0,0,0-10.85,6.69,38.63,38.63,0,0,0-3.58,10.3c-1.6,9.72-3.11,20-4.77,32.42-.54,4.09-.88,8-1,11.67a86.89,86.89,0,0,0-83.1-62.28h-.19A87,87,0,0,0,60.1,98.94a32.37,32.37,0,0,0,.11-4.74c-.33-7.13-.76-14.36-1.17-21.35-.14-2.48-.29-5-.43-7.44-.11-1.93-.24-3.86-.37-5.78-.06-.86-.12-1.72-.17-2.58a7,7,0,0,0-7-6.54H47.34a7.46,7.46,0,0,0-1.43.14,7,7,0,0,0-1.67-.2H40.33a7,7,0,0,0-1.59.19,7,7,0,0,0-1.53-.17H33.35a7.22,7.22,0,0,0-1.55.17,7.36,7.36,0,0,0-1.64-.19H26.48a7,7,0,0,0-7,6.25l-.05.39c0,.42-.08.77-.1,1.12l-.29,4.85c-.29,4.77-.58,9.54-.84,14.31-.09,1.62-.2,3.25-.3,4.88-.28,4.5-.58,9.16-.63,13.84a25.19,25.19,0,0,0,8.82,20.06l0,0v.13c-.51,24.09-1,48.59-1.45,72.27l-.27,13.85c0,.56,0,1.12,0,1.69-.05,2-.1,4.1-.06,6.22.12,7.58,5.08,12.48,12.66,12.48h4c5.91,0,10.16-3.26,11.66-8.93a17.18,17.18,0,0,0,.51-4.83c-.3-16.8-.64-34.12-.93-49.41l0-1.08q-.42-21.16-.85-42.33a26.32,26.32,0,0,0,3.73-4A87,87,0,0,0,138.59,223h.14a86.92,86.92,0,0,0,86.78-86.6s0-.09,0-.13a15.25,15.25,0,0,0,2.52,3c0,.17,0,.45,0,.91-.54,17.15-1,34.58-1.45,51.43l-.37,13.75,0,1c0,1.41-.09,2.86-.05,4.38.18,7.26,5.17,12.14,12.42,12.14h3.69c7.63,0,12.58-4.92,12.63-12.54C254.88,208.52,254.84,206.79,254.79,205.11ZM46.11,111.51a5.12,5.12,0,0,0-1.76,4.34q.46,22,.88,43.94.48,24.71.94,49.4a10.9,10.9,0,0,1-.29,2.91c-.69,2.63-2.2,3.72-4.89,3.72H37c-3.68,0-5.6-1.86-5.66-5.59,0-2.55,0-5.11.09-7.66q.85-43.06,1.73-86.11a6.62,6.62,0,0,0-2.49-5.64,18.2,18.2,0,0,1-6.37-14.66c.07-6.14.57-12.27.92-18.4.35-6.38.74-12.76,1.12-19.14,0-.34.07-.67.13-1.17h3.68v1.77q0,15.7,0,31.41c0,.49-.16,1.08.06,1.45.33.56.94,1.36,1.38,1.36h0c.59,0,1.22-.75,1.63-1.31.23-.34.08-1,.08-1.45V57.47h3.86V90.64c0,.5-.16,1.09.06,1.46.33.54.94,1.34,1.37,1.34h0c.58-.06,1.19-.77,1.58-1.34.23-.34.07-1,.07-1.45V57.45h3.91V90.8c0,1.18-.18,2.51,1.49,2.73H46c1,0,1.39-.92,1.39-2.75V57.51h3.74c.18,2.76.38,5.53.54,8.31.55,9.56,1.15,19.13,1.6,28.7C53.54,101.26,51.52,107.11,46.11,111.51ZM138.73,216h-.12A79.9,79.9,0,0,1,58.8,135.67c.09-43.81,36-79.46,79.89-79.46h.17A79.89,79.89,0,0,1,138.73,216Zm103.51-.16h-3.69c-3.43,0-5.34-1.84-5.42-5.31,0-1.67,0-3.35.08-5,.58-21.71,1.14-43.43,1.81-65.14.08-2.53-.21-4.45-2.26-6.29-2.81-2.51-3.08-6.26-3.45-9.78a99.08,99.08,0,0,1,.63-23.53c1.44-10.75,3-21.5,4.74-32.2a31.8,31.8,0,0,1,3-8.4,4.72,4.72,0,0,1,4.54-2.73,8.25,8.25,0,0,1,1.19.09,2.75,2.75,0,0,1,2.51,2.13,12.58,12.58,0,0,1,.47,3c0,24.48,0,49,0,74.14.44,21.7.9,44.1,1.36,66.51.05,2.31.13,4.62.12,6.93C247.85,214,246,215.82,242.24,215.82Z"/><path class="cls-1" d="M164.66,154.36a44.28,44.28,0,0,0,8.25-11.24,24.75,24.75,0,0,0-.27-23,24,24,0,0,0-21.29-13A22,22,0,0,0,138.68,111a21,21,0,0,0-8.11-3.45,24.09,24.09,0,0,0-22.25,7.27,25.36,25.36,0,0,0-6.46,19.47c.53,7,4.21,12.31,7.36,16.13,7.85,9.57,17.62,16.05,25.26,20.64a8,8,0,0,0,4.12,1.11A8.81,8.81,0,0,0,143,171,105,105,0,0,0,164.66,154.36ZM138.6,165.2a1,1,0,0,1-.52-.12c-8.72-5.23-16.93-11.13-23.46-19.07-2.93-3.58-5.42-7.48-5.78-12.23-.91-11.89,7.77-19.64,17.14-19.64a17.21,17.21,0,0,1,3.26.31,15.54,15.54,0,0,1,9.51,6.35,4.38,4.38,0,0,1,.34-.63,15.37,15.37,0,0,1,12.26-6.06,17.09,17.09,0,0,1,15.05,9.15,17.73,17.73,0,0,1,.24,16.74,37.83,37.83,0,0,1-7,9.48A98.27,98.27,0,0,1,139.43,165,1.7,1.7,0,0,1,138.6,165.2Z"/></svg>