<svg id="Layer_1" data-name="Layer 1" xmlns="http://www.w3.org/2000/svg" viewBox="0 0 266.94 266.94"><defs><style>.cls-1{fill:none;}.cls-2{fill:#009f98;}</style></defs><path class="cls-1" d="M95.5,138.61l5.74,8.54a2.48,2.48,0,0,0,.28.36h0a2.89,2.89,0,0,0,4.94-2.57l-2.55-11.89A2.88,2.88,0,0,0,99,131.66L95.81,135A2.88,2.88,0,0,0,95.5,138.61Z"/><path class="cls-2" d="M196.16,186c-4.91-23-39.54-47.59-54.49-33.79s-14.16,50.39-3.73,71.78c.18.38.37.76.56,1.12a25.77,25.77,0,0,0,38.55,8.69C193.19,221.56,200.1,204.42,196.16,186Zm-4.6-2.11c-4.32,9.39-10.22,5-17.4-3.65-5.07-6.09-7.56-.4-9.95,4.25l.13.09.12.08.25.18.1.07.29.21.05,0,.7.52h0l.33.25,0,0,.29.24,0,0,.3.24h0c1.16.95,2,1.7,2,1.7,3.77,1.47,2.75,3.39,2,3.87s-2.52-.62-2.52-.62c.16.71-.12,1-.47,1.13s-.59-.82-.86-1.55a2.9,2.9,0,0,0-1.26-1.46l-2-1.14h0l-1.32-.76a3.94,3.94,0,0,1-1.46,1.29c-.12.89-.28,1.84-.45,2.78a30.24,30.24,0,0,1-.17,6l0,0,.32-.31.12-.11.4-.35h0l.44-.34.07,0,.39-.25.07,0a5.9,5.9,0,0,1,5.61-.34,3.05,3.05,0,0,0,2.73,0,3.1,3.1,0,0,1,1.08-.38l1.94,3a2.91,2.91,0,0,0,2.08,1.3,8.5,8.5,0,0,1,2.8.92,12.63,12.63,0,0,1,2.45,2.18c4.12,4.87,2.88,14-3.28,19.18-5.57,4.73-13.34,4.48-17.74,1l-.13-.09c-3.72-2.84-5.45-7.8-6.18-10.75a2.88,2.88,0,0,0-1.58-1.92c-14-6.8-22.77-23.93-11.64-32.26a7.15,7.15,0,0,1,.56-.52c5.69-4.91,14.09-1.13,14.09-1.13l-2.81-5.18s0-2.73,2.54-2.88,6.12-.3,6.67,1-1.24,4.11-2.91,4h0l.08.1.27.28.07.08c.23.24.45.5.67.76l0,0,.27.34.08.09.23.3a1,1,0,0,0,.08.11l.22.32.07.09c.18.27.36.55.52.83l0,.07.18.33.06.13a2.59,2.59,0,0,1,.14.29l.06.13.12.3s0,.07,0,.11a5.26,5.26,0,0,1,.22.82.43.43,0,0,1,0,.11,2.89,2.89,0,0,1,0,.29.61.61,0,0,1,0,.14,2.09,2.09,0,0,1,0,.25v.15a2.28,2.28,0,0,1,0,.26s0,.08,0,.12a2.33,2.33,0,0,1-.08.38h0a1.51,1.51,0,0,1-.14.35l-.06.1c0,.08-.1.16-.16.24l-.08.09a1.66,1.66,0,0,1-.26.27l0,0a3.44,3.44,0,0,1-.36.28l-.11.07a3.37,3.37,0,0,1-.32.19l-.13.07-.42.21-.06,0c-.17.08-.35.15-.54.22l-.12,0-.46.15-.17,0-.1,0c.21.46.4.93.58,1.42h0l.05,0,.28-.24,0,0,.27-.22,0,0,.25-.2,0,0,.23-.18,0,0,.19-.15,0,0,.17-.13,0,0,.14-.11,0,0,.12-.08h0l.1-.07h0l.08,0c.11,0,.21.08.32.12l.11.05.22.1.13.06.11.05.48-.91c3.62-6.94,7-9.25,11.59-5.54s12.32,17.79,16,2.21l1.36,2.2A3,3,0,0,1,191.56,183.9Z"/><path class="cls-2" d="M175.8,139.63a21.4,21.4,0,0,0,4.2-14.74c-.71-9.49-8.36-15.34-16.45-21.54A101.22,101.22,0,0,1,151.22,92.8h.14a10,10,0,0,0,2.71-.36c4.87-1.37,6.91-5.21,7.92-7.3a12,12,0,0,0,3.78-3.2,7,7,0,0,0,2.47-2.42,9.69,9.69,0,0,0,.67-1.32c6.53-1,7.7-5.3,7.89-7.29a23.66,23.66,0,0,0-.48-5.57c-.2-1.32-.47-3.14-.58-4.5,6.87-10.39,7.15-13.3,7.29-14.73a75.11,75.11,0,0,0-.57-12,10.15,10.15,0,0,0-.38-1.82c-1.29-4.16-8.71-25.17-27.83-30.06a32,32,0,0,0-7-1,7.14,7.14,0,0,0-1.79-.23c-.26,0-.51,0-.77,0-16.35,1.82-27.86,8.55-35.2,20.58C103.19,32,100.56,45.11,97.77,59q-.66,3.3-1.36,6.71a49.44,49.44,0,0,1-2.89,9.39C90.75,80.8,87,85,83.1,89.35,76.93,96.24,70,104,69.39,117.1c-5.91,4.76-11.39,16.39-11.63,21.2a44.36,44.36,0,0,0,.28,6.1,14.37,14.37,0,0,0,7.2,11.08c2.5,1.43,6.39,3.75,10.66,6.73,7.3,5.08,18,11.88,26.37,15.85a28.92,28.92,0,0,0,0,12.3c.39,1.6.57,2.64.66,3.28-1.55,3.17-3,7.16-2.78,10.76l-.11.12a9.88,9.88,0,0,0-2,3.56c-1.49,4.69-6.42,20.86-7.41,32.07-.66,7.53.39,17,6.9,25.72,3.11,0,6.2,0,9.29-.16-7.51-7.09-10-15.83-9.21-24.95.94-10.76,6.06-27.27,7.1-30.56a3,3,0,0,1,.6-1l1.83-2.07.14-2.39c-.84-2.66,2.39-8.83,2.39-8.83s1.12-.14-.56-7.16c-1.09-4.53-.07-9.35.79-12.2a2.87,2.87,0,0,0-1.69-3.48C99.69,169.54,87,161.4,79.9,156.46c-4.47-3.11-8.53-5.55-11.2-7.06a7.36,7.36,0,0,1-3.7-5.68,41.59,41.59,0,0,1-.25-5.07c.14-2.81,4.91-13.05,9.26-16.27a12.74,12.74,0,0,0,1.55-1.47,3,3,0,0,0,.79-2C76.35,99.94,91.72,95,99.9,78a56.81,56.81,0,0,0,3.37-10.86c6.27-30.22,8.63-55.33,42.18-59.06l0,.24.95,0a25,25,0,0,1,6.16.76c15.79,4,22.13,22.94,22.88,25.35a2.33,2.33,0,0,1,.11.51c.15,1.36.82,7.82.56,10.54s-5.36,10.34-6.88,12.61a2.75,2.75,0,0,0-.49,1.41c-.1,3.34,1.28,9.35,1.14,10.8-.09,1-2.26,1.15-3.92,1.15-1,0-1.87-.07-1.87-.07a3.3,3.3,0,0,0-1.18,2.26,5.13,5.13,0,0,1-.6,2.28l-1.83.14c.52,2.35-1.83,2.87-3.27,3.79s-1.7,5-5,5.88a2.73,2.73,0,0,1-.83.11c-2.09,0-5.2-1.57-7.46-2.89a2.93,2.93,0,0,0-1.47-.4,2.86,2.86,0,0,0-2.66,1.78L139.06,86a2.93,2.93,0,0,0,.17,2.58c11.11,18.76,32.87,24.49,33.79,36.82a14.38,14.38,0,0,1-5.42,12.69,2.86,2.86,0,0,0,.29,4.65c9.4,5.93,32.16,23.05,34.15,50.86,2.39,33.19-23.48,45.56-26.36,46.83a3.7,3.7,0,0,0-.51.29l-5.64,4c.15.36.28.74.41,1.12a28,28,0,0,1,1.41,7.65q3.47-1.11,6.87-2.3a35.67,35.67,0,0,0-.58-3.66l1.28-.91c4.87-2.26,32.75-16.83,30.11-53.55C207.06,165.79,187.56,148,175.8,139.63Z"/><path class="cls-2" d="M101.07,130.76a2.84,2.84,0,0,0-2.07.9L95.81,135a2.88,2.88,0,0,0-.31,3.6l5.74,8.54a2.48,2.48,0,0,0,.28.36,2.8,2.8,0,0,0,2.08.94,2.89,2.89,0,0,0,2.86-3.51l-2.55-11.89A2.89,2.89,0,0,0,101.07,130.76Z"/></svg>