<svg id="Layer_1" data-name="Layer 1" xmlns="http://www.w3.org/2000/svg" viewBox="0 0 266.94 266.94"><defs><style>.cls-1{fill:#2f6eb4;}</style></defs><path class="cls-1" d="M128.72,93.13c.19-5.07.38-9.86.57-14.79l-9.68,5.11Z"/><path class="cls-1" d="M211.57,233.72A9.39,9.39,0,0,0,201,230.56l-.56.17c-.42.12-1,.28-1.54.5a19.75,19.75,0,0,1-5.9,1.51c-.81,0-1.52,0-2.17,0a25.35,25.35,0,0,1-5.41-.48,29,29,0,0,1-1.19-4,63.34,63.34,0,0,1-.59-12.49l0-1.67c0-2.72.1-5.49.16-8.17.09-4.32.19-8.79.19-13.23v-.84A64.33,64.33,0,0,1,184.6,181a20.5,20.5,0,0,0-.76-11c-2.39-6.27-4.85-12.75-7.09-19.32-3.13-9.16-5.83-17.5-8.27-25.51-1-3.29-1.88-6.14-1.34-8.56.18-.79.3-1.53.41-2.19s.17-1,.26-1.42c.44-2,.88-4,1.33-5.95a26.76,26.76,0,0,0,6.49.93h.58c4.42-.14,7.62-1.8,9.51-4.93A36.36,36.36,0,0,0,189,96.23a10.64,10.64,0,0,0-.62-8.52,11.36,11.36,0,0,0-7-5.66,17.09,17.09,0,0,0-4.74-.71h-.52a32.72,32.72,0,0,0-.74-17.75c-1.26-3.74-2.66-7.31-4-10.61-.76-1.91-.36-2.42.1-3,.15-.19.3-.39.44-.6.78,0,1.6-.13,2.45-.27a8.58,8.58,0,0,0,7.12-9.82,7.88,7.88,0,0,0,.56-2.91c0-.27,0-.56,0-.86a7.37,7.37,0,0,0,.16-.79,7.75,7.75,0,0,0,1.74-3.51,8.49,8.49,0,0,0-1.85-7.1c-.33-.44-.65-.82-.94-1.16a21.26,21.26,0,0,0-2.37-10.31A8.93,8.93,0,0,0,177,7.32a16.47,16.47,0,0,0-4.69-4.22A25.88,25.88,0,0,0,159.51-.13c-7.2,0-13.73,2.73-17.9,7.5a22.2,22.2,0,0,0-5.81,14.32,23,23,0,0,0,3.41,12.24c1,1.78,2.1,3.45,3.14,5.06h0a5.35,5.35,0,0,1-2,1.81c-.68.38-1.42.76-2.2,1.16a37.59,37.59,0,0,0-6.86,4.21c-5.47,4.43-10.79,9.13-15.94,13.67l-2.11,1.86c-3.36,3-6.68,6-9.9,9l-2.29,2.1a37.31,37.31,0,0,0-3.27,3.37c-4.73,5.69-4.24,11.71,1.36,16.54,2.41,2.07,5,4.28,7.69,6.39,3.15,2.46,6.38,4.84,9.5,7.15l.27.2c1.05.77,2.09,1.52,3.13,2.24a34.16,34.16,0,0,1-1.77,4.86,46,46,0,0,0-3.48,25.11,57.38,57.38,0,0,1,.37,14.11c-.57,4.52-1.29,9.34-2.25,15.14-.61,3.7-2,4.52-3.41,5.06-8,3.06-14.93,8.57-20.45,16.38l-1.65,2.34c-2.68,3.82-5.21,7.42-8,10.77-3.51,4.19-5.73,6.25-8.88,6.58A19.68,19.68,0,0,0,65,210.48c-.53.21-1,.4-1.4.52-.62.18-1.36.35-2.14.52l-1.34.31a8.72,8.72,0,0,0-6.89,9.23l0,.69a14.69,14.69,0,0,0,1.13,5.55,59,59,0,0,0,3,5.67l1,1.73c.42.75.86,1.44,1.26,2.05a14.37,14.37,0,0,1,1.18,2.05,53.09,53.09,0,0,0,10.26,17.76A22.17,22.17,0,0,0,76.41,261a10,10,0,0,0,5.15,1.47,9.87,9.87,0,0,0,8.33-4.8,9.63,9.63,0,0,0,.6-8.92l-.08-.21c-.3-.83-.63-1.6-.91-2.28a14.23,14.23,0,0,1-.87-2.34c-.84-4.21-.51-8.71,0-13a4.33,4.33,0,0,1,1.46-3.14c1.14-1,2.21-2,3.24-3s2-1.94,3-2.81c2.31-2,5.06-4.42,7.9-6.63,2.39-1.86,4.87-3.72,7.28-5.53s5.08-3.81,7.61-5.78l2.57-2c3.81-3,7.4-5.88,11.38-7.81a14.61,14.61,0,0,0,6-5.79c1.67-2.87,3.26-5.8,4.81-8.63,1-1.76,1.95-3.59,2.94-5.36l.69-1.22c1.65,1.87,3.32,3.77,4.89,5.67a3,3,0,0,1,.84,3,53.85,53.85,0,0,0,.57,27.41,214.66,214.66,0,0,1,6.41,30.29l.08.64a12.82,12.82,0,0,1,.11,4.58,14.82,14.82,0,0,0,.19,8.44c.46,1.67.87,3.46,1.26,5.49,1.37,7.28,6.82,8.37,10,8.37h.13a18.07,18.07,0,0,0,2.7-.25c4.54-.76,8.06-2.83,11.55-5.06l1-.7a13.81,13.81,0,0,1,1.77-1.07,54.11,54.11,0,0,0,18.17-9.45,28.35,28.35,0,0,0,4.83-5.29A9.2,9.2,0,0,0,211.57,233.72ZM206.36,241a22.53,22.53,0,0,1-3.62,4,46.64,46.64,0,0,1-15.83,8.22,19.49,19.49,0,0,0-4.56,2.57c-2.79,1.78-5.59,3.49-8.93,4.05a10.84,10.84,0,0,1-1.6.16h-.08c-2.05,0-2.69-.64-3.08-2.67s-.83-4.06-1.38-6a8,8,0,0,1-.24-4.55c.82-2.72.38-5.41.06-8.1a217.82,217.82,0,0,0-6.61-31.29,46.65,46.65,0,0,1-.53-23.89,9.91,9.91,0,0,0-2.25-9.2c-3.14-3.77-6.45-7.39-9.69-11.07-.57-.65-1.16-1.27-1.79-2-1.9,3.28-3.79,6.44-5.58,9.65-2.59,4.62-5,9.32-7.7,13.9a7.69,7.69,0,0,1-3,3c-5.65,2.74-10.32,6.82-15.21,10.63s-10,7.48-14.88,11.31c-2.82,2.2-5.54,4.53-8.23,6.89-2.15,1.9-4.13,4-6.27,5.88a11.32,11.32,0,0,0-3.76,7.59,49,49,0,0,0,.12,15.1,41,41,0,0,0,2.07,5.63c.35,1,.83,1.93.16,3a2.68,2.68,0,0,1-4,1.1A14.87,14.87,0,0,1,76.39,252a46.11,46.11,0,0,1-8.94-15.42c-.64-1.9-2-3.55-3-5.32-1.28-2.27-2.68-4.49-3.76-6.85a12.09,12.09,0,0,1-.56-3.89,1.72,1.72,0,0,1,1.55-1.88c1.29-.31,2.59-.56,3.86-.94,1.82-.54,3.57-1.53,5.41-1.72,6.15-.65,10-4.79,13.51-9s6.76-9,10-13.56c4.43-6.27,10-11.13,17.22-13.88,4.85-1.85,7-5.66,7.83-10.45.85-5.13,1.63-10.26,2.28-15.41a62.54,62.54,0,0,0-.37-15.88,38.72,38.72,0,0,1,2.92-21.33,40.34,40.34,0,0,0,2.95-9.41,1.8,1.8,0,0,0-.66-2.07c-2-1.36-3.94-2.72-5.87-4.14-3.23-2.38-6.46-4.76-9.61-7.23-2.54-2-5-4.08-7.44-6.18-2.71-2.34-2.84-4-.55-6.76a28.92,28.92,0,0,1,2.62-2.69c4-3.68,8-7.38,12.08-11,5.89-5.18,11.75-10.41,17.84-15.35,2.39-1.94,5.34-3.17,8.06-4.69a12.35,12.35,0,0,0,5.9-7.24,3.13,3.13,0,0,0-.35-2.77c-1.37-2.15-2.79-4.26-4.06-6.47a16.1,16.1,0,0,1-2.48-8.56,15.22,15.22,0,0,1,4.07-9.9c3.15-3.6,8-5.11,12.64-5.11a19,19,0,0,1,9.31,2.28,9.59,9.59,0,0,1,2.65,2.43c.38.49.25,1.39.34,2.11a3.07,3.07,0,0,0,.12,1c1.62,3,2.66,6.1,2,9.59a2.64,2.64,0,0,0,.59,1.66c.58.85,1.32,1.6,1.95,2.42.9,1.19.8,1.74-.51,2.47-1,.52-1.31,1.17-.84,2.19.33.73,0,1.16-.68,1.42-.33.13-.67.23-1.08.37.35.25.68.46,1,.69.63.49,1.1,1,.19,1.69a1.47,1.47,0,0,0-.29,1.06c0,.64.21,1.27.29,1.91.14,1.14-.24,1.86-1.37,2.06a23.27,23.27,0,0,1-3.74.23c-2,0-2.11.06-2.77,1.93a4.73,4.73,0,0,1-.7,1.31c-2.41,3.09-2.49,6.4-1.07,9.93,1.36,3.38,2.69,6.79,3.85,10.24A26.61,26.61,0,0,1,169,81c-.75,3.06-1.6,6.09-2.45,9.26a22.87,22.87,0,0,0,2.91.47,3.39,3.39,0,0,0,1.74-.46c.61-.37,1.32-.56,1.93-.94a6.43,6.43,0,0,1,3.5-1,10.34,10.34,0,0,1,2.82.44,4,4,0,0,1,2.91,5.14,29.41,29.41,0,0,1-2.66,5.47c-.79,1.31-2.31,1.5-3.73,1.54h-.36a27.2,27.2,0,0,1-6.49-1.14,11,11,0,0,0-2.7-.27c-.8,0-1.6,0-2.39,0-.21,0-.51.56-.59.89q-1.28,5.49-2.49,11c-.26,1.19-.39,2.4-.66,3.59-.94,4.22.28,8.22,1.47,12.13,2.63,8.62,5.43,17.19,8.34,25.72,2.24,6.57,4.71,13.06,7.17,19.55a13.5,13.5,0,0,1,.41,7.31,76,76,0,0,0-.68,13c0,7.1-.26,14.19-.35,21.29-.07,5.2-.28,10.42.68,15.55a47.43,47.43,0,0,0,2,6.64,4.09,4.09,0,0,0,3,2.54,30.06,30.06,0,0,0,8.47,1c.8,0,1.6,0,2.4,0a26,26,0,0,0,8.11-2c.63-.24,1.3-.39,1.94-.61a2.55,2.55,0,0,1,.82-.15,2.78,2.78,0,0,1,2.11,1.19A2.21,2.21,0,0,1,206.36,241Z"/></svg>