<svg id="Layer_1" data-name="Layer 1" xmlns="http://www.w3.org/2000/svg" viewBox="0 0 270.94 270.94"><defs><style>.cls-1{fill:#81ba2a;}</style></defs><path class="cls-1" d="M210.3,105.73c-5.25-8.82-12.56-14.75-21.76-17.68a58.2,58.2,0,0,0,5.28-2.81c7.5-4.49,14.65-10.33,22.5-18.36.26-.26.51-.53.78-.83l.31-.34a7,7,0,0,0-1.1-10.48l-.22-.17c-.29-.2-.67-.49-1.16-.78-.89-.52-1.76-1.05-2.64-1.58-2.16-1.3-4.39-2.65-6.71-3.91A89.58,89.58,0,0,0,184,40a43.27,43.27,0,0,0-10.37-1.38c-1.09,0-2.18.06-3.23.16-5.39.53-10.5,2.76-15.62,6.81l-.69.59a6.92,6.92,0,0,0-.93-.77L148,41.91l-6.51-4.43a7,7,0,0,0-7.84,0,35.43,35.43,0,0,0-12.28,13.3c-3.3,6.43-4.24,13.72-2.88,22.3a80.37,80.37,0,0,0,4.2,15.16c-.66-.25-1.32-.5-2-.71a60.1,60.1,0,0,0-17.73-2.82,51.31,51.31,0,0,0-29.52,9.42C63.42,101,56.85,110,53.84,120.88a67.66,67.66,0,0,0-1.91,25.51,110.17,110.17,0,0,0,6.88,27.71,171.18,171.18,0,0,0,19,35.77c3,4.31,6.44,9.29,10.33,14a28.09,28.09,0,0,0,22.25,10.77c.8,0,1.61,0,2.43-.1,5.36-.41,10.51-1.14,14.84-1.81a61.65,61.65,0,0,1,9.27-.9,25.36,25.36,0,0,1,3.79.26l2.91.41c3.47.5,7.06,1,10.52,1.59a34.74,34.74,0,0,0,5.75.5,27.91,27.91,0,0,0,19.32-7.54,53.82,53.82,0,0,0,4.27-4.31c5-5.73,9-12,12.9-18.11l.41-.65c7.75-12.19,13.05-22.62,16.67-32.81a100.66,100.66,0,0,0,5.93-33.33v-.14A63.94,63.94,0,0,0,210.3,105.73ZM147,89l-.17-.65-.33-1.25c-.17-.61-.31-1.2-.46-1.78A44.67,44.67,0,0,0,153.26,89c-1.33.49-2.62,1-3.89,1.65-.69.33-1.43.64-2.2.94A6.82,6.82,0,0,0,147,89ZM171.1,45.79a24,24,0,0,1,2.54-.13,36.9,36.9,0,0,1,8.71,1.18,83.72,83.72,0,0,1,19.89,8.1c3.1,1.69,6.08,3.57,9.12,5.36.29.18.56.39.92.65l-1,1a105.94,105.94,0,0,1-21.1,17.24,37.64,37.64,0,0,1-13,5.15,46.38,46.38,0,0,1-7.71.68,36.19,36.19,0,0,1-19.9-5.77c-.08-.05-.14-.12-.31-.26a35.52,35.52,0,0,1,7.16-6.34,68.24,68.24,0,0,1,18.92-8.84c3.58-1.1,7.24-1.93,10.86-2.89a2.17,2.17,0,0,0,.71-.29c-13.71,1-27.48,1.66-40.47,7.43.16-.4.25-.66.37-.9A52.86,52.86,0,0,1,153.27,57l0,0,.26-.2a7.09,7.09,0,0,0,1.84-2.21,37,37,0,0,1,3.74-3.42C162.66,48.33,166.53,46.24,171.1,45.79ZM127.55,54a28.72,28.72,0,0,1,10-10.68l11.56,7.85c-.23.26-.45.52-.67.79h0c-6.51,4.72-9.9,11.18-10.65,19.11a50.25,50.25,0,0,0,2,17.87c.15.58.31,1.16.49,1.87a27.8,27.8,0,0,1-4,.73,4.44,4.44,0,0,1-1.5-.24c-1-.34-2.07-.41-3.09-.68a1.45,1.45,0,0,1-.88-.7c-2.25-5.84-4.4-11.7-5.39-17.91S124.6,59.68,127.55,54Zm79.37,114.91c-4,11.16-9.65,21.44-16,31.4-3.93,6.17-7.82,12.37-12.67,17.89a47,47,0,0,1-3.72,3.75A21,21,0,0,1,160,227.62a27.9,27.9,0,0,1-4.58-.4c-4.52-.76-9.06-1.38-13.6-2a33.63,33.63,0,0,0-4.79-.33,69.17,69.17,0,0,0-10.33,1c-4.75.73-9.53,1.39-14.31,1.75-.65,0-1.28.08-1.9.08a21.11,21.11,0,0,1-16.84-8.22c-3.56-4.33-6.8-8.93-10-13.55a163.19,163.19,0,0,1-18.27-34.3,104.94,104.94,0,0,1-6.47-26,60.74,60.74,0,0,1,1.71-22.89c2.69-9.75,8.53-17.2,16.76-22.86a44.29,44.29,0,0,1,25.56-8.19,52.81,52.81,0,0,1,15.66,2.51,53.59,53.59,0,0,1,8.59,3.85,23.67,23.67,0,0,0,11,2.78,24.05,24.05,0,0,0,8-1.44,63.63,63.63,0,0,0,6.26-2.48,39.44,39.44,0,0,1,14-3.74c2.26-.19,4.52-.31,6.77-.31a50.15,50.15,0,0,1,7.91.59,31.73,31.73,0,0,1,23.16,15.86,57.17,57.17,0,0,1,8.17,28.47A93.78,93.78,0,0,1,206.92,168.86Z"/></svg>