<svg id="Layer_1" data-name="Layer 1" xmlns="http://www.w3.org/2000/svg" viewBox="0 0 268.94 268.94"><defs><style>.cls-1{fill:#00b1ff;}</style></defs><path class="cls-1" d="M220.23,130.73l-2-2.18c-2.09-2.24-4.05-4.35-6-6.55a33.92,33.92,0,0,1-6.1-9.19,12.55,12.55,0,0,1-.45-1.26,28.23,28.23,0,0,0,3.05-19.19c-2.17-12.77-5.82-23.52-11.17-32.89C184.51,36.6,164.2,23.66,137.23,21c-2.56-.25-5.21-.38-7.88-.38h0a99.91,99.91,0,0,0-15,1.19,90.79,90.79,0,0,0-35,12.71A73.63,73.63,0,0,0,52.94,62.4c-6.93,13-9.52,27.38-7.69,42.76a80.28,80.28,0,0,0,5.57,21.49c2,4.76,4.07,9.56,6.08,14.2,1.58,3.66,3.21,7.44,4.79,11.16a37.65,37.65,0,0,1,2.55,11.79,64,64,0,0,1-.71,16.47,64.54,64.54,0,0,1-5.33,16.61,7,7,0,0,0,2.46,8.81L87.93,223.8,123,247.11a6.92,6.92,0,0,0,3.87,1.17,7,7,0,0,0,6.59-4.63l.42-1.17c.27-.77.54-1.52.81-2.26,2.88-7.75,6.16-16,10.67-23.53,2.47-4.13,5-6.56,8.14-7.88A65.17,65.17,0,0,1,173,204.35c2.44-.22,4.89-.32,7.49-.44s5.05-.23,7.64-.44a33.63,33.63,0,0,0,13.5-3.81c7.63-4.19,10.27-11.33,7.24-19.58-.31-.86-.59-1.78-.85-2.74a9.63,9.63,0,0,0,4.91-11.7c-.06-.17-.11-.35-.17-.52.16-.24.31-.48.46-.72a9.55,9.55,0,0,0-.43-10.81l.75-.18a13.36,13.36,0,0,0,6.65-22.68Zm-8.42,15.91c-.88.23-1.79.36-2.67.56-3.83.9-5.36,3.59-4,7.27a12.19,12.19,0,0,0,1.83,3,2.65,2.65,0,0,1,.3,3.28,20.85,20.85,0,0,1-1.76,2.43,1.81,1.81,0,0,0-.16,2.65,5.24,5.24,0,0,1,.89,1.82,2.74,2.74,0,0,1-1.74,3.63c-1,.43-2,.86-3,1.37a2.29,2.29,0,0,0-1.23,2.77c.63,2.37,1.18,4.77,2,7.07,1.81,4.92.58,8.49-4,11a26.7,26.7,0,0,1-10.72,3c-5,.43-10.12.44-15.16.89a72.4,72.4,0,0,0-21.59,5c-5.19,2.17-8.65,6.06-11.45,10.75-4.66,7.81-8.07,16.19-11.22,24.69-.42,1.13-.82,2.27-1.26,3.49L64.54,199.86a72.43,72.43,0,0,0,5.89-18.38,70.7,70.7,0,0,0,.78-18.26,45,45,0,0,0-3.07-13.94c-3.59-8.46-7.31-16.86-10.86-25.34a72.37,72.37,0,0,1-5.08-19.61c-1.62-13.6.45-26.52,6.91-38.64A66.54,66.54,0,0,1,83.05,40.48,83.45,83.45,0,0,1,115.4,28.76a94.82,94.82,0,0,1,13.95-1.11c2.4,0,4.8.11,7.2.35,24.2,2.36,42.77,13.64,54.95,34.94,5.44,9.53,8.53,19.85,10.34,30.59a21.12,21.12,0,0,1-2.43,14.92c-1.39,2.31-.67,4.7.24,7A40.33,40.33,0,0,0,207,126.59c2.63,3,5.41,5.94,8.13,8.89C219,139.73,217.43,145.17,211.81,146.64Z"/><path class="cls-1" d="M161.59,45.76c-10.66-5.09-22-6.8-33.73-7.21-4.75.49-9.54.77-14.25,1.51A64.1,64.1,0,0,0,90,48.66,67.24,67.24,0,0,0,66.69,73a33.75,33.75,0,0,0-4.85,15.35c-.32,6.62,1.77,12.55,5.36,18,3.9,6,9.13,10.62,14.46,15.23,2.64,2.29,5.51,4.52,7.49,7.33,3.83,5.46,4.29,11.76,3.09,18.22-.37,2,.39,3.2,2.47,3.83a4.92,4.92,0,0,0,1.42.22,3.44,3.44,0,0,0,3.12-1.91,41.5,41.5,0,0,1,3.75-6c3.94-4.85,8.06-9.55,12.09-14.33,5.92-7,13.09-12.22,22.06-14.41,5.82-1.42,11.79-2.21,17.71-3.18,5.52-.91,11.1-1.46,16.58-2.56,7.27-1.45,13.07-5.3,16.19-12.19,4.86-10.72,3.36-21.13-2.78-30.84C179.17,56.75,171.14,50.33,161.59,45.76Zm19.67,47.92c-2,4.42-5.66,7.11-11.19,8.22-3.12.62-6.3,1.06-9.65,1.53-2.19.3-4.44.61-6.7,1l-3.92.62c-4.67.74-9.51,1.5-14.31,2.67-9.76,2.38-18.42,8-25.75,16.7-1.35,1.6-2.72,3.2-4.09,4.8-2,2.38-4.11,4.81-6.17,7.29a26.66,26.66,0,0,0-4.61-11.63,41.77,41.77,0,0,0-7.43-7.57l-1.2-1c-5.26-4.55-9.88-8.73-13.19-13.78-3.07-4.67-4.44-9.2-4.22-13.84a26.78,26.78,0,0,1,3.92-12.18A59.83,59.83,0,0,1,93.67,54.65a57.4,57.4,0,0,1,21-7.68c3-.47,6.1-.74,9.36-1,1.34-.12,2.69-.24,4-.38,12.67.49,22.09,2.51,30.49,6.52,9,4.31,15.69,10,20.36,17.39C184.14,77.71,184.9,85.63,181.26,93.68Z"/><path class="cls-1" d="M126.65,91c-.1-.92.26-1.25,1.19-1.33a11.65,11.65,0,0,0,9.46-16.35,11.31,11.31,0,0,0-9.63-6.87c-.35,0-.9-.36-1-.63a14.87,14.87,0,0,1,0-2.31l1.67-.28c-.52-3.49-1-6.89-1.55-10.37A16.54,16.54,0,0,0,116,60c-4.11-2.36-8.23-2.75-12.39-.52A11.73,11.73,0,0,0,97.22,70c-5.49.65-8.25,2.75-8.84,6.58a8.14,8.14,0,0,0,.81,5.2,8.33,8.33,0,0,0,6,4.34c.56,6.57,7.09,9.87,12.71,6.36.16.4.28.72.42,1a16.42,16.42,0,0,0,17.57,9.86c.66-.11.9-.35,1-1,.27-2,.58-3.91.88-5.87.18-1.19.37-2.37.57-3.65l-1.7-.18A16.22,16.22,0,0,0,126.65,91Z"/><path class="cls-1" d="M139.58,56l-.34-.21c-2.25,2.87-4.49,5.74-6.78,8.68l3,1.73Z"/><path class="cls-1" d="M138.94,70.07c.42.62.76,1.3,1.26,2.15l8.66-6.79-.19-.3-2,.76-7.37,3C138.67,69.12,138.52,69.46,138.94,70.07Z"/><path class="cls-1" d="M142.42,76.47c-.48-.07-1.06-.16-1.07.61s0,1.66,0,2.67l11.13-1.56A3.36,3.36,0,0,0,151,77.7C148.13,77.28,145.27,76.87,142.42,76.47Z"/><path class="cls-1" d="M139.92,84.4c-.48.75-.89,1.56-1.43,2.52l10.16,4,.16-.29c-2.71-2.15-5.43-4.31-8.17-6.44C140.52,84.1,140,84.24,139.92,84.4Z"/><path class="cls-1" d="M135.73,90.52a.88.88,0,0,0-.82-.27c-.81.38-1.57.88-2.46,1.41l6.88,8.67a2.63,2.63,0,0,0,.09-.38C138.2,96.81,137,93.65,135.73,90.52Z"/></svg>